<svg width="512" height="512" viewBox="0 0 512 512" fill="none" xmlns="http://www.w3.org/2000/svg">
    <defs>
        <linearGradient id="bg_grad" x1="0%" y1="0%" x2="100%" y2="100%">
            <stop offset="0%" style="stop-color:#4F46E5;"/>
            <stop offset="100%" style="stop-color:#7C3AED;"/>
        </linearGradient>
        <linearGradient id="p_body_grad" x1="0%" y1="0%" x2="0%" y2="100%">
            <stop offset="0%" style="stop-color:#FFFFFF;"/>
            <stop offset="100%" style="stop-color:#E0E7FF;"/>
        </linearGradient>
    </defs>
    
    <rect width="512" height="512" rx="128" fill="url(#bg_grad)"/>
    
    <g transform="translate(146, 116)">
        <path d="M0 40C0 17.9086 17.9086 0 40 0H130C179.706 0 220 40.2944 220 90C220 139.706 179.706 180 130 180H50C44.4772 180 40 184.477 40 190V280C40 296.569 26.5685 310 10 310H0V40Z" fill="url(#p_body_grad)"/>
        
        <path d="M110 55C129.33 55 145 70.67 145 90C145 109.33 129.33 125 110 125C90.67 125 75 109.33 75 90" stroke="#6366F1" stroke-width="16" stroke-linecap="round"/>
        <path d="M60 80L75 95L90 80" stroke="#6366F1" stroke-width="16" stroke-linecap="round" stroke-linejoin="round"/>
        
        <circle cx="30" cy="40" r="10" fill="white" fill-opacity="0.5"/>
    </g>
</svg>